HIERARCHY
ROOT Hips
{
	OFFSET 0.717293 88.513641 3.606412
	CHANNELS 6 Xposition Yposition Zposition Zrotation Yrotation Xrotation 
	JOINT Spine
	{
		OFFSET -0.000000 8.814246 -2.080107
		CHANNELS 3 Zrotation Yrotation Xrotation
		JOINT Spine1
		{
			OFFSET -0.000000 8.844141 -0.000000
			CHANNELS 3 Zrotation Yrotation Xrotation
			JOINT Spine2
			{
				OFFSET 0.000000 11.682268 0.000000
				CHANNELS 3 Zrotation Yrotation Xrotation
				JOINT Spine3
				{
					OFFSET 0.000000 11.746700 -0.000000
					CHANNELS 3 Zrotation Yrotation Xrotation
					JOINT Neck
					{
						OFFSET 0.000000 17.658264 0.000000
						CHANNELS 3 Zrotation Yrotation Xrotation
						JOINT Neck1
						{
							OFFSET -0.000000 5.101515 -0.000000
							CHANNELS 3 Zrotation Yrotation Xrotation
							JOINT Head
							{
								OFFSET -0.000000 5.101515 -0.000000
								CHANNELS 3 Zrotation Yrotation Xrotation
								JOINT HeadEnd
								{
									OFFSET -0.000000 11.655085 -0.000000
									CHANNELS 3 Zrotation Yrotation Xrotation
									End Site
									{
										OFFSET 0.000000 0.000000 0.000000
									}
								}
							}
						}
					}
					JOINT RightShoulder
					{
						OFFSET -2.625389 11.175210 -0.000000
						CHANNELS 3 Zrotation Yrotation Xrotation
						JOINT RightArm
						{
							OFFSET 0.000000 10.434715 0.000000
							CHANNELS 3 Zrotation Yrotation Xrotation
							JOINT RightForeArm
							{
								OFFSET 0.000000 29.628420 0.000000
								CHANNELS 3 Zrotation Yrotation Xrotation
								JOINT RightHand
								{
									OFFSET 0.000000 22.857611 -0.000000
									CHANNELS 3 Zrotation Yrotation Xrotation
									JOINT RightHandThumb1
									{
										OFFSET -2.867323 3.959563 2.944291
										CHANNELS 3 Zrotation Yrotation Xrotation
										JOINT RightHandThumb2
										{
											OFFSET 0.000000 3.350399 -0.000000
											CHANNELS 3 Zrotation Yrotation Xrotation
											JOINT RightHandThumb3
											{
												OFFSET 0.000000 3.756509 -0.000000
												CHANNELS 3 Zrotation Yrotation Xrotation
												JOINT RightHandThumb4
												{
													OFFSET -0.000000 3.147345 -0.000000
													CHANNELS 3 Zrotation Yrotation Xrotation
													End Site
													{
														OFFSET 0.000000 0.000000 0.000000
													}
												}
											}
										}
									}
									JOINT RightHandIndex1
									{
										OFFSET -0.086752 10.030893 2.345280
										CHANNELS 3 Zrotation Yrotation Xrotation
										JOINT RightHandIndex2
										{
											OFFSET -0.000000 4.061090 -0.000000
											CHANNELS 3 Zrotation Yrotation Xrotation
											JOINT RightHandIndex3
											{
												OFFSET -0.000000 3.248873 0.000000
												CHANNELS 3 Zrotation Yrotation Xrotation
												JOINT RightHandIndex4
												{
													OFFSET -0.000000 2.639709 0.000000
													CHANNELS 3 Zrotation Yrotation Xrotation
													End Site
													{
														OFFSET 0.000000 0.000000 0.000000
													}
												}
											}
										}
									}
									JOINT RightHandMiddle1
									{
										OFFSET 0.104102 9.502952 0.006768
										CHANNELS 3 Zrotation Yrotation Xrotation
										JOINT RightHandMiddle2
										{
											OFFSET 0.000000 4.568727 -0.000000
											CHANNELS 3 Zrotation Yrotation Xrotation
											JOINT RightHandMiddle3
											{
												OFFSET 0.000000 3.654981 -0.000000
												CHANNELS 3 Zrotation Yrotation Xrotation
												JOINT RightHandMiddle4
												{
													OFFSET 0.000000 2.741236 0.000000
													CHANNELS 3 Zrotation Yrotation Xrotation
													End Site
													{
														OFFSET 0.000000 0.000000 0.000000
													}
												}
											}
										}
									}
									JOINT RightHandRing1
									{
										OFFSET 0.086752 8.921708 -2.267442
										CHANNELS 3 Zrotation Yrotation Xrotation
										JOINT RightHandRing2
										{
											OFFSET -0.000000 4.061090 -0.000000
											CHANNELS 3 Zrotation Yrotation Xrotation
											JOINT RightHandRing3
											{
												OFFSET -0.000000 3.654981 0.000000
												CHANNELS 3 Zrotation Yrotation Xrotation
												JOINT RightHandRing4
												{
													OFFSET -0.000000 2.741236 0.000000
													CHANNELS 3 Zrotation Yrotation Xrotation
													End Site
													{
														OFFSET 0.000000 0.000000 0.000000
													}
												}
											}
										}
									}
									JOINT RightHandPinky1
									{
										OFFSET -0.173504 7.976997 -4.467199
										CHANNELS 3 Zrotation Yrotation Xrotation
										JOINT RightHandPinky2
										{
											OFFSET -0.000000 3.350399 -0.000000
											CHANNELS 3 Zrotation Yrotation Xrotation
											JOINT RightHandPinky3
											{
												OFFSET -0.000000 2.842763 0.000000
												CHANNELS 3 Zrotation Yrotation Xrotation
												JOINT RightHandPinky4
												{
													OFFSET 0.000000 2.639709 -0.000000
													CHANNELS 3 Zrotation Yrotation Xrotation
													End Site
													{
														OFFSET 0.000000 0.000000 0.000000
													}
												}
											}
										}
									}
									JOINT RightForeArmEnd
									{
										OFFSET 0.000000 0.000000 0.000000
										CHANNELS 3 Zrotation Yrotation Xrotation
										End Site
										{
											OFFSET 0.000000 0.000000 0.000000
										}
									}
								}
								JOINT RightArmEnd
								{
									OFFSET 0.000000 0.000000 0.000000
									CHANNELS 3 Zrotation Yrotation Xrotation
									End Site
									{
										OFFSET 0.000000 0.000000 0.000000
									}
								}
							}
						}
					}
					JOINT LeftShoulder
					{
						OFFSET 2.625389 11.175210 -0.000000
						CHANNELS 3 Zrotation Yrotation Xrotation
						JOINT LeftArm
						{
							OFFSET 0.000000 10.813635 0.000000
							CHANNELS 3 Zrotation Yrotation Xrotation
							JOINT LeftForeArm
							{
								OFFSET -0.000000 28.724781 -0.000000
								CHANNELS 3 Zrotation Yrotation Xrotation
								JOINT LeftHand
								{
									OFFSET 0.644384 25.716167 -0.328871
									CHANNELS 3 Zrotation Yrotation Xrotation
									JOINT LeftHandThumb1
									{
										OFFSET 2.867323 3.959563 2.944291
										CHANNELS 3 Zrotation Yrotation Xrotation
										JOINT LeftHandThumb2
										{
											OFFSET 0.000000 3.350399 0.000000
											CHANNELS 3 Zrotation Yrotation Xrotation
											JOINT LeftHandThumb3
											{
												OFFSET 0.000000 3.756509 0.000000
												CHANNELS 3 Zrotation Yrotation Xrotation
												JOINT LeftHandThumb4
												{
													OFFSET -0.000000 3.100000 0.000000
													CHANNELS 3 Zrotation Yrotation Xrotation
													End Site
													{
														OFFSET 0.000000 0.000000 0.000000
													}
												}
											}
										}
									}
									JOINT LeftHandIndex1
									{
										OFFSET 0.086752 10.030893 2.345280
										CHANNELS 3 Zrotation Yrotation Xrotation
										JOINT LeftHandIndex2
										{
											OFFSET -0.000000 4.061090 -0.000000
											CHANNELS 3 Zrotation Yrotation Xrotation
											JOINT LeftHandIndex3
											{
												OFFSET -0.000000 3.248873 -0.000000
												CHANNELS 3 Zrotation Yrotation Xrotation
												JOINT LeftHandIndex4
												{
													OFFSET -0.000000 2.639709 -0.000000
													CHANNELS 3 Zrotation Yrotation Xrotation
													End Site
													{
														OFFSET 0.000000 0.000000 0.000000
													}
												}
											}
										}
									}
									JOINT LeftHandMiddle1
									{
										OFFSET -0.104102 9.502952 0.006768
										CHANNELS 3 Zrotation Yrotation Xrotation
										JOINT LeftHandMiddle2
										{
											OFFSET 0.000000 4.568727 -0.000000
											CHANNELS 3 Zrotation Yrotation Xrotation
											JOINT LeftHandMiddle3
											{
												OFFSET 0.000000 3.654981 0.000000
												CHANNELS 3 Zrotation Yrotation Xrotation
												JOINT LeftHandMiddle4
												{
													OFFSET 0.000000 2.741236 0.000000
													CHANNELS 3 Zrotation Yrotation Xrotation
													End Site
													{
														OFFSET 0.000000 0.000000 0.000000
													}
												}
											}
										}
									}
									JOINT LeftHandRing1
									{
										OFFSET -0.086752 8.921708 -2.267442
										CHANNELS 3 Zrotation Yrotation Xrotation
										JOINT LeftHandRing2
										{
											OFFSET -0.000000 4.061090 -0.000000
											CHANNELS 3 Zrotation Yrotation Xrotation
											JOINT LeftHandRing3
											{
												OFFSET 0.000000 3.654981 0.000000
												CHANNELS 3 Zrotation Yrotation Xrotation
												JOINT LeftHandRing4
												{
													OFFSET -0.000000 2.741236 -0.000000
													CHANNELS 3 Zrotation Yrotation Xrotation
													End Site
													{
														OFFSET 0.000000 0.000000 0.000000
													}
												}
											}
										}
									}
									JOINT LeftHandPinky1
									{
										OFFSET 0.173504 7.976997 -4.467199
										CHANNELS 3 Zrotation Yrotation Xrotation
										JOINT LeftHandPinky2
										{
											OFFSET 0.000000 3.350399 -0.000000
											CHANNELS 3 Zrotation Yrotation Xrotation
											JOINT LeftHandPinky3
											{
												OFFSET 0.000000 2.842763 0.000000
												CHANNELS 3 Zrotation Yrotation Xrotation
												JOINT LeftHandPinky4
												{
													OFFSET -0.000000 2.639709 -0.000000
													CHANNELS 3 Zrotation Yrotation Xrotation
													End Site
													{
														OFFSET 0.000000 0.000000 0.000000
													}
												}
											}
										}
									}
									JOINT LeftForeArmEnd
									{
										OFFSET 0.000000 0.000000 0.000000
										CHANNELS 3 Zrotation Yrotation Xrotation
										End Site
										{
											OFFSET 0.000000 0.000000 0.000000
										}
									}
								}
								JOINT LeftArmEnd
								{
									OFFSET 0.000000 0.000000 0.000000
									CHANNELS 3 Zrotation Yrotation Xrotation
									End Site
									{
										OFFSET 0.000000 0.000000 0.000000
									}
								}
							}
						}
					}
				}
			}
		}
	}
	JOINT RightUpLeg
	{
		OFFSET -11.289943 0.000000 -0.000000
		CHANNELS 3 Zrotation Yrotation Xrotation
		JOINT RightLeg
		{
			OFFSET 0.000000 -38.200325 -0.000000
			CHANNELS 3 Zrotation Yrotation Xrotation
			JOINT RightFoot
			{
				OFFSET -0.000000 -39.900856 -0.000000
				CHANNELS 3 Zrotation Yrotation Xrotation
				JOINT RightToeBase
				{
					OFFSET -0.000000 0.000000 15.261641
					CHANNELS 3 Zrotation Yrotation Xrotation
					JOINT RightToeBaseEnd
					{
						OFFSET 0.000000 0.000000 7.370709
						CHANNELS 3 Zrotation Yrotation Xrotation
						End Site
						{
							OFFSET 0.000000 0.000000 0.000000
						}
					}
				}
				JOINT RightLegEnd
				{
					OFFSET 0.000000 0.000000 0.000000
					CHANNELS 3 Zrotation Yrotation Xrotation
					End Site
					{
						OFFSET 0.000000 0.000000 0.000000
					}
				}
			}
			JOINT RightUpLegEnd
			{
				OFFSET 0.000000 0.000000 0.000000
				CHANNELS 3 Zrotation Yrotation Xrotation
				End Site
				{
					OFFSET 0.000000 0.000000 0.000000
				}
			}
		}
	}
	JOINT LeftUpLeg
	{
		OFFSET 11.315661 -0.000000 -0.000000
		CHANNELS 3 Zrotation Yrotation Xrotation
		JOINT LeftLeg
		{
			OFFSET 0.000000 -38.200325 0.000000
			CHANNELS 3 Zrotation Yrotation Xrotation
			JOINT LeftFoot
			{
				OFFSET 0.000000 -39.900856 0.000000
				CHANNELS 3 Zrotation Yrotation Xrotation
				JOINT LeftToeBase
				{
					OFFSET 0.000000 -0.000000 15.261641
					CHANNELS 3 Zrotation Yrotation Xrotation
					JOINT LeftToeBaseEnd
					{
						OFFSET -0.000000 0.000000 7.539996
						CHANNELS 3 Zrotation Yrotation Xrotation
						End Site
						{
							OFFSET 0.000000 0.000000 0.000000
						}
					}
				}
				JOINT LeftLegEnd
				{
					OFFSET 0.000000 0.000000 0.000000
					CHANNELS 3 Zrotation Yrotation Xrotation
					End Site
					{
						OFFSET 0.000000 0.000000 0.000000
					}
				}
			}
			JOINT LeftUpLegEnd
			{
				OFFSET 0.000000 0.000000 0.000000
				CHANNELS 3 Zrotation Yrotation Xrotation
				End Site
				{
					OFFSET 0.000000 0.000000 0.000000
				}
			}
		}
	}
}
MOTION
Frames: 5
Frame Time: 0.016667
0.717293 88.513641 3.606412 -0.807625 -0.145498 -10.211953 2.974575 -0.200603 8.045942 0.343280 -0.161376 3.810282 0.356144 -1.985393 3.162312 -0.570617 -0.651933 1.640799 0.102534 -1.376300 4.726995 -0.786954 -0.955029 -2.695320 -0.607556 -0.996725 -19.207796 0.000000 0.000000 0.000000 90.633385 -0.099940 10.407545 65.336456 -33.843838 4.224480 -0.450088 10.791811 20.358622 7.570276 13.503039 -6.307324 10.937046 -1.865515 39.738762 0.000000 0.000000 -26.639997 0.000000 0.000000 -18.499998 0.000000 0.000000 0.000000 13.612741 0.000000 -9.950699 9.528920 0.000000 0.000000 9.528920 0.000000 0.000000 0.000000 0.000000 0.000000 12.607718 -0.000000 -10.819229 8.825400 0.000000 0.000000 8.825400 0.000000 0.000000 0.000000 0.000000 0.000000 14.150433 -0.000000 -9.929859 9.905301 0.000000 0.000000 9.905301 0.000000 0.000000 0.000000 0.000000 0.000000 14.986264 0.000000 -10.561732 10.490384 0.000000 0.000000 10.490384 0.000000 0.000000 0.000000 0.000000 0.000000 0.000000 0.000000 0.000000 0.000000 0.000000 0.000000 -87.418159 -0.270548 6.233880 -75.998817 26.272923 -6.204398 -0.339548 -5.544444 38.662571 0.678041 -17.794977 -13.609646 -10.637670 1.840800 39.870983 0.000000 0.000000 -25.919998 0.000000 0.000000 -18.000004 0.000000 0.000000 0.000000 -12.784686 -0.000000 -9.414296 -8.949280 0.000000 0.000000 -8.949280 0.000000 0.000000 0.000000 0.000000 0.000000 -12.048728 -0.000000 -10.392732 -8.434110 0.000000 0.000000 -8.434110 0.000000 0.000000 0.000000 0.000000 0.000000 -13.654737 -0.000000 -11.575627 -9.558316 0.000000 0.000000 -9.558316 0.000000 0.000000 0.000000 0.000000 0.000000 -14.250447 -0.000000 -12.885098 -9.975311 0.000000 0.000000 -9.975311 0.000000 0.000000 0.000000 0.000000 0.000000 0.000000 0.000000 0.000000 0.000000 0.000000 0.000000 1.136141 -14.518364 12.126021 -0.031131 -0.345450 4.775295 -3.873879 -13.260001 19.727701 -0.519588 0.644877 -18.908152 0.000000 0.000000 0.000000 0.000000 0.000000 0.000000 0.000000 0.000000 0.000000 8.610489 -1.127510 2.905101 0.263057 0.928557 15.818080 -1.732145 6.252617 17.146843 1.232856 -0.489963 -24.107113 0.000000 0.000000 0.000000 0.000000 0.000000 0.000000 0.000000 0.000000 0.000000 
0.708604 87.918579 3.349917 -1.271398 -0.327247 -9.605248 3.512564 -0.720885 6.990217 1.349940 -0.521506 4.815319 -0.480360 -1.475453 2.448285 -1.168056 -0.577981 3.783488 -0.368893 -0.444164 3.847151 -0.793362 -0.687149 -3.662407 -0.748363 -0.871690 -18.194017 0.000000 0.000000 0.000000 89.899635 -0.216076 9.717489 65.300919 -31.977810 5.807024 -0.149495 12.988517 20.662872 7.688125 11.499638 -4.907424 10.811527 -1.878821 39.657959 -0.000001 0.000031 -26.429996 0.000006 0.000043 -18.075497 0.000008 -0.000004 -0.000025 13.147748 0.022918 -10.009886 9.122634 -0.048052 0.034759 9.140942 -0.021333 0.015265 -0.000029 0.000046 -0.000034 12.640946 0.015615 -10.985268 8.566544 -0.021961 0.000752 8.653866 -0.003432 -0.000820 0.000027 0.000007 0.000007 14.833338 -0.060858 -10.556336 9.712864 0.025335 0.061385 9.697124 -0.005381 0.038959 -0.000018 0.000405 0.000022 15.469353 -0.149871 -11.548453 10.386011 0.022425 0.389484 10.195440 -0.036303 0.312467 0.000350 -0.000005 0.000009 0.000000 0.000000 0.000000 0.000000 0.000000 0.000000 -87.090256 -0.215924 6.879835 -74.504852 25.838968 -5.376587 -0.514356 -9.012043 39.824936 1.455179 -15.348467 -14.034457 -10.397275 1.815563 39.812996 -0.000007 0.000026 -25.533512 -0.000056 -0.000025 -17.582569 -0.000578 -0.000007 0.000347 -12.999217 0.115101 -9.400402 -8.968241 -0.032524 0.032621 -9.186253 -0.005965 0.025685 0.000010 -0.000086 -0.000014 -12.209377 0.048035 -10.313528 -8.665613 -0.023797 0.019128 -8.435151 0.000542 0.022868 -0.000189 -0.000029 -0.000087 -13.675164 -0.016027 -10.937445 -9.699539 0.040669 -0.094050 -9.566089 0.001744 -0.056057 0.000480 0.000009 0.000004 -13.650355 -0.098491 -11.928751 -10.060842 0.044626 -0.234612 -10.070154 -0.021277 -0.209641 0.000063 -0.000013 -0.000031 0.000000 0.000000 0.000000 0.000000 0.000000 0.000000 1.797130 -14.790740 11.561850 0.016933 -0.422462 4.958710 -5.154000 -13.627863 20.194393 -0.767826 0.553730 -18.853277 0.000000 0.000000 0.000000 0.000000 0.000000 0.000000 0.000000 0.000000 0.000000 8.365416 -0.413682 3.743680 0.284984 0.914985 14.818006 -3.148223 6.008186 21.877148 0.810478 -0.449953 -22.983053 0.000000 0.000000 0.000000 0.000000 0.000000 0.000000 0.000000 0.000000 0.000000 
0.627249 87.893196 3.300593 -1.235115 -0.147388 -9.673274 3.514407 -0.719232 6.951308 1.337770 -0.515393 4.902456 -0.532512 -1.460894 2.409761 -1.140742 -0.581669 3.929703 -0.287953 -0.526951 3.906372 -0.800687 -0.748778 -3.577823 -0.756187 -0.868782 -18.237644 0.000000 0.000000 0.000000 89.974121 -0.236973 9.723708 65.153076 -31.735338 5.855108 -0.167150 13.082102 20.833706 7.785610 11.491315 -5.143286 10.782602 -1.877562 39.675041 -0.000008 0.000053 -26.322119 0.000019 0.000036 -18.006254 0.000020 0.000005 -0.000042 13.036118 0.025780 -9.843993 8.996163 -0.050244 0.036816 8.986722 -0.022498 0.018614 -0.000009 0.000061 -0.000025 12.513800 0.015956 -10.863165 8.454982 -0.023543 0.002800 8.533215 -0.004039 0.000342 0.000021 -0.000011 -0.000009 14.684867 -0.063289 -10.467423 9.602210 0.026924 0.052729 9.596297 -0.003666 0.032485 -0.000025 0.000371 0.000002 15.337981 -0.155412 -11.473281 10.327860 0.029050 0.364033 10.131554 -0.032331 0.296290 0.000382 0.000006 0.000014 0.000000 0.000000 0.000000 0.000000 0.000000 0.000000 -87.060631 -0.225016 6.803159 -74.482536 25.720047 -5.235633 -0.508784 -9.050339 39.956459 1.252249 -15.120684 -14.083859 -10.339450 1.802596 39.840588 0.000013 0.000028 -25.406639 -0.000055 -0.000011 -17.492435 -0.000691 0.000005 0.000242 -12.719454 0.121293 -9.384835 -8.865374 -0.032840 0.032464 -9.074773 -0.006103 0.022313 0.000023 -0.000045 -0.000005 -11.911102 0.050243 -10.338923 -8.589736 -0.024174 0.016387 -8.362171 0.000511 0.022507 -0.000284 -0.000019 -0.000107 -13.406500 -0.015921 -11.037718 -9.635021 0.040828 -0.092725 -9.504183 0.001885 -0.054847 0.000510 0.000015 0.000010 -13.430897 -0.099689 -12.063805 -10.031492 0.043462 -0.229909 -10.061153 -0.021969 -0.205081 0.000073 0.000010 -0.000052 0.000000 0.000000 0.000000 0.000000 0.000000 0.000000 1.812246 -15.002129 11.523558 0.016202 -0.411807 4.944571 -5.308936 -13.621310 20.158064 -0.748805 0.534546 -18.872911 0.000000 0.000000 0.000000 0.000000 0.000000 0.000000 0.000000 0.000000 0.000000 8.514236 -0.418361 3.551483 0.292444 0.931769 14.893027 -3.249791 5.766588 21.956341 0.824542 -0.465231 -23.074797 0.000000 0.000000 0.000000 0.000000 0.000000 0.000000 0.000000 0.000000 0.000000 
0.564155 87.876427 3.259225 -1.173385 0.024182 -9.725994 3.501305 -0.706809 6.935576 1.342064 -0.513720 4.912867 -0.600163 -1.394395 2.438063 -1.123298 -0.570501 4.014916 -0.265470 -0.567002 3.919034 -0.809639 -0.799679 -3.522725 -0.750339 -0.863246 -18.293795 0.000000 0.000000 0.000000 89.999596 -0.230257 9.776840 65.228767 -31.322617 5.710030 -0.189470 13.285590 21.270195 7.610359 11.444696 -5.303702 10.761354 -1.877489 39.686905 -0.000008 0.000052 -26.242298 0.000019 0.000037 -17.955296 0.000020 0.000005 -0.000042 12.893165 0.026814 -9.720353 8.881092 -0.051520 0.036869 8.845806 -0.022713 0.019483 -0.000010 0.000061 -0.000025 12.368926 0.015397 -10.788288 8.357032 -0.024240 0.003607 8.433159 -0.004333 0.000569 0.000021 -0.000008 -0.000008 14.551661 -0.064345 -10.450570 9.505535 0.027276 0.047095 9.506764 -0.002849 0.028329 -0.000023 0.000423 0.000002 15.212097 -0.155964 -11.499993 10.264964 0.032202 0.350649 10.068793 -0.031908 0.287333 0.000421 0.000006 0.000008 0.000000 0.000000 0.000000 0.000000 0.000000 0.000000 -86.991272 -0.225798 6.761353 -74.474380 25.582275 -5.122208 -0.495958 -9.106505 40.140751 1.255906 -14.891471 -14.019640 -10.299362 1.795563 39.858727 0.000014 0.000028 -25.326057 -0.000052 -0.000012 -17.431498 -0.000727 0.000004 0.000203 -12.505784 0.122638 -9.266761 -8.760990 -0.033243 0.031406 -8.961777 -0.006423 0.018907 0.000020 0.000007 -0.000005 -11.691722 0.050652 -10.269685 -8.509183 -0.024803 0.013661 -8.286068 0.000350 0.021887 -0.000369 -0.000019 -0.000118 -13.208488 -0.014333 -11.053474 -9.562748 0.041147 -0.090935 -9.441135 0.001921 -0.052989 0.000525 0.000014 0.000010 -13.283892 -0.100309 -12.132007 -9.985335 0.042911 -0.224953 -10.030541 -0.022830 -0.197466 0.000056 0.000010 -0.000052 0.000000 0.000000 0.000000 0.000000 0.000000 0.000000 1.789949 -15.168882 11.500292 0.016640 -0.402700 4.929631 -5.437779 -13.646504 20.131643 -0.739830 0.518780 -18.881767 0.000000 0.000000 0.000000 0.000000 0.000000 0.000000 0.000000 0.000000 0.000000 8.580763 -0.452594 3.428054 0.296630 0.942798 14.908375 -3.322543 5.577342 22.022839 0.834346 -0.478226 -23.143641 0.000000 0.000000 0.000000 0.000000 0.000000 0.000000 0.000000 0.000000 0.000000 
0.519129 87.859795 3.227825 -1.103387 0.180508 -9.767554 3.486761 -0.693622 6.933010 1.350473 -0.513888 4.874900 -0.670828 -1.327469 2.499401 -1.116422 -0.561655 4.064044 -0.271033 -0.582796 3.890333 -0.823232 -0.841922 -3.490805 -0.742430 -0.857651 -18.338997 0.000000 0.000000 0.000000 90.012810 -0.211423 9.826075 65.385933 -30.815489 5.428562 -0.218785 13.514597 21.948004 7.326511 11.382487 -5.377704 10.741573 -1.876810 39.698326 -0.000009 0.000051 -26.174517 0.000018 0.000039 -17.911924 0.000019 0.000005 -0.000041 12.737209 0.027459 -9.574110 8.760700 -0.052825 0.039611 8.700673 -0.022883 0.022646 -0.000011 0.000061 -0.000025 12.204827 0.014257 -10.687230 8.254106 -0.024661 0.005290 8.328709 -0.004625 0.001714 0.000021 -0.000004 -0.000007 14.398057 -0.064614 -10.426438 9.398865 0.027305 0.041151 9.405011 -0.002305 0.023800 -0.000021 0.000513 0.000003 15.054165 -0.154391 -11.532851 10.182380 0.034289 0.336915 9.993052 -0.031957 0.277492 0.000449 0.000006 0.000003 0.000000 0.000000 0.000000 0.000000 0.000000 0.000000 -86.927734 -0.228053 6.729851 -74.483711 25.420145 -5.098810 -0.481342 -9.188302 40.422359 1.361705 -14.775734 -13.932014 -10.268987 1.791038 39.872494 0.000014 0.000028 -25.268307 -0.000050 -0.000012 -17.386417 -0.000719 0.000004 0.000189 -12.321617 0.122449 -9.138629 -8.657768 -0.033835 0.028587 -8.851173 -0.007351 0.014513 0.000017 0.000058 -0.000006 -11.505632 0.050162 -10.179027 -8.425633 -0.025557 0.010436 -8.211105 -0.000024 0.020830 -0.000438 -0.000018 -0.000124 -13.050380 -0.012509 -11.040772 -9.490122 0.041507 -0.088067 -9.379994 0.002097 -0.050227 0.000567 0.000013 0.000010 -13.184658 -0.100216 -12.175073 -9.940946 0.042826 -0.216644 -10.003041 -0.023237 -0.188090 0.000049 0.000010 -0.000052 0.000000 0.000000 0.000000 0.000000 0.000000 0.000000 1.749557 -15.315095 11.499082 0.017935 -0.394247 4.911550 -5.537052 -13.695828 20.097322 -0.736754 0.504111 -18.874186 0.000000 0.000000 0.000000 0.000000 0.000000 0.000000 0.000000 0.000000 0.000000 8.597968 -0.505096 3.336773 0.298797 0.949310 14.903460 -3.365345 5.411710 22.073521 0.839078 -0.490205 -23.195776 0.000000 0.000000 0.000000 0.000000 0.000000 0.000000 0.000000 0.000000 0.000000 
